<svg id="Layer_1" data-name="Layer 1" xmlns="http://www.w3.org/2000/svg" viewBox="0 0 204.72 231.61"><defs><style>.cls-1{fill:#fff;}</style></defs><path class="cls-1" d="M69.16,305.53c0-6.2,0-12.19,0-18.18,0-3.63-.31-3.93-3.85-3.89l-13.63.15a3.63,3.63,0,0,1-2.13-.57c5.53-3.42,11.37-6.44,16.51-10.38a114.65,114.65,0,0,0,14.47-13.49,143.76,143.76,0,0,0,12.26-15.53c3.7-5.36,6.8-11.14,10.16-16.74l.69.21c.06,1.2.18,2.4.17,3.6q-.21,21.79-.46,43.58c0,3.4.08,3.52,3.44,3.48,5.3,0,10.6-.19,15.9-.17.84,0,2.16.48,2.4,1.09a3.6,3.6,0,0,1-.25,3.05,4,4,0,0,1-2.85,1.09c-5.23.08-10.46,0-15.7,0-2.89,0-3.07.18-3.09,3q-.24,26.85-.46,53.71-.21,22.94-.42,45.86c0,4.41-.19,8.81-.21,13.22a7.76,7.76,0,0,1-2.41,5.71Q86.09,418,72.55,431.81A6.69,6.69,0,0,1,71.16,433c-.92.53-1.62.28-1.74-.86-.08-.82,0-1.65,0-2.48q0-46.17-.07-92.35C69.29,326.81,69.21,316.27,69.16,305.53Z" transform="translate(-49.53 -226.9)"/><path class="cls-1" d="M139.61,365.84c5-5.3,9.94-10.5,14.88-15.68,2-2.15,3.11-2,4.92.4q28.83,38.6,57.69,77.16c6.73,8.95,14.12,17.3,24,23,3.38,2,7,3.49,10.52,5.22l2.66,1.31a13.23,13.23,0,0,1-2.15.68c-10.52.85-21,1.11-31.41-1.26-11-2.5-19.55-8.41-26.54-17.29-15.58-19.77-31.54-39.25-47.33-58.86q-3.83-4.74-7.61-9.5C137.36,368.66,137.4,368.21,139.61,365.84Z" transform="translate(-49.53 -226.9)"/><path class="cls-1" d="M184.72,312.17c-1.24,1.57-2.34,3.07-3.58,4.44-.36.41-1.11.46-1.68.67a5.59,5.59,0,0,1,.15-1.66c1.83-4.08,4.1-8,5.46-12.22a70.26,70.26,0,0,0,2.53-12.9c.61-5.08-1.62-8.46-6.5-10.83-1.09-.53-2.19-1-3.29-1.54l.11-.61h52.77l.27.53a16.35,16.35,0,0,1-2.18,1.39,123,123,0,0,0-22.56,12.44A109.56,109.56,0,0,0,184.72,312.17Z" transform="translate(-49.53 -226.9)"/></svg>